<svg width="70" height="70" viewBox="0 0 70 70" fill="none" xmlns="http://www.w3.org/2000/svg">
<circle cx="35" cy="35" r="35" fill="#3E5090"/>
<path d="M10.3835 40.6667V30.6567H12.8335V35.3327L12.7215 37.0407H12.7495C13.0482 36.3407 13.3282 35.7714 13.5895 35.3327L16.3615 30.6567H18.8395V40.6667H16.3895V36.0047L16.5015 34.2967H16.4735C16.1748 34.9967 15.8948 35.566 15.6335 36.0047L12.8475 40.6667H10.3835ZM20.9382 40.6667V30.6567H23.3882V34.6607H27.0282V30.6567H29.4782V40.6667H27.0282V36.7467H23.3882V40.6667H20.9382ZM31.5749 40.6667V30.6567H34.0249V34.5207H35.0329L37.1049 30.6567H39.7369L37.0349 35.4447V35.4727L39.8909 40.6667H37.1469L35.0329 36.6067H34.0249V40.6667H31.5749ZM40.1754 35.5987C40.1754 34.152 40.6701 32.9387 41.6594 31.9587C42.6581 30.9787 43.9087 30.4887 45.4114 30.4887C46.9141 30.4887 48.1601 30.9787 49.1494 31.9587C50.1481 32.9387 50.6474 34.152 50.6474 35.5987C50.6474 37.0827 50.1481 38.3287 49.1494 39.3367C48.1601 40.3354 46.9141 40.8347 45.4114 40.8347C43.9087 40.8347 42.6581 40.3354 41.6594 39.3367C40.6701 38.3287 40.1754 37.0827 40.1754 35.5987ZM42.7094 35.5987C42.7094 36.448 42.9707 37.162 43.4934 37.7407C44.0161 38.31 44.6554 38.5947 45.4114 38.5947C46.1674 38.5947 46.8067 38.31 47.3294 37.7407C47.8521 37.162 48.1134 36.448 48.1134 35.5987C48.1134 34.7867 47.8521 34.1054 47.3294 33.5547C46.8067 33.004 46.1674 32.7287 45.4114 32.7287C44.6554 32.7287 44.0161 33.004 43.4934 33.5547C42.9707 34.1054 42.7094 34.7867 42.7094 35.5987ZM51.8138 40.6667L52.6398 30.6567H55.2998L56.7558 34.8847L57.2598 36.5367H57.2878C57.4744 35.8647 57.6424 35.314 57.7918 34.8847L59.2478 30.6567H61.9078L62.7198 40.6667H60.2698L59.9618 36.1587C59.9431 35.9347 59.9338 35.6827 59.9338 35.4027C59.9338 35.1227 59.9384 34.8987 59.9478 34.7307L59.9618 34.4787H59.9338C59.7098 35.1787 59.5231 35.7387 59.3738 36.1587L58.3238 39.0567H56.2238L55.1738 36.1587L54.6138 34.4787H54.5858C54.6231 35.0947 54.6231 35.6547 54.5858 36.1587L54.2778 40.6667H51.8138Z" fill="white"/>
</svg>
