<svg width="40" height="40" viewBox="0 0 40 40" fill="none" xmlns="http://www.w3.org/2000/svg">
<path d="M20.1303 8.76611C17.3113 8.76611 15.0168 11.0606 15.0168 13.8796C15.0168 16.6986 17.3113 18.9931 20.1303 18.9931C22.9493 18.9931 25.2438 16.6986 25.2438 13.8796C25.2438 11.0606 22.9493 8.76611 20.1303 8.76611ZM20.1303 17.5321C18.1164 17.5321 16.4778 15.8936 16.4778 13.8796C16.4778 11.8656 18.1164 10.2271 20.1303 10.2271C22.1443 10.2271 23.7828 11.8656 23.7828 13.8796C23.7828 15.8936 22.1443 17.5321 20.1303 17.5321Z" fill="#CFA55B"/>
<path d="M29.9067 4.10322C27.2608 1.45735 23.7427 0 20.0011 0C16.2587 0 12.7414 1.45735 10.0955 4.10322C5.19895 8.99903 4.59044 18.2106 8.77767 23.7917L20.0011 40L31.2077 23.8143C35.4117 18.2106 34.8032 8.99903 29.9067 4.10322ZM30.0228 22.9604L20.0011 37.433L9.96327 22.9377C6.1654 17.8739 6.70962 9.55494 11.1291 5.13615C13.4989 2.7664 16.6495 1.461 20.0011 1.461C23.3526 1.461 26.5033 2.7664 28.8737 5.13615C33.2933 9.55494 33.8375 17.8739 30.0228 22.9604Z" fill="#CFA55B"/>
</svg>
